M48
; DRILL file {KiCad (6.0.10-0)} date 
; FORMAT={-:-/ absolute / metric / decimal}
; #@! TF.CreationDate,2023-01-04T21:45:03+09:00
; #@! TF.GenerationSoftware,Kicad,Pcbnew,(6.0.10-0)
; #@! TF.FileFunction,MixedPlating,1,2
FMAT,2
METRIC
; #@! TA.AperFunction,Plated,PTH,ComponentDrill
T1C0.800
; #@! TA.AperFunction,Plated,PTH,ComponentDrill
T2C0.900
; #@! TA.AperFunction,Plated,PTH,ComponentDrill
T3C1.000
%
G90
G05
T1
X42.585Y49.53
X45.085Y49.53
X45.085Y22.86
X45.085Y19.685
X45.085Y16.51
X53.97Y74.93
X53.97Y72.39
X53.97Y69.85
X53.97Y67.31
X53.97Y64.77
X53.97Y62.23
X53.97Y59.69
X53.97Y57.15
X53.97Y54.61
X53.97Y52.07
X53.97Y49.53
X53.97Y46.99
X53.97Y44.45
X53.97Y41.91
X53.97Y39.37
X53.97Y36.83
X53.97Y34.29
X53.97Y31.75
X53.97Y29.21
X53.97Y26.67
X55.245Y22.86
X55.245Y19.685
X55.245Y16.51
X69.21Y74.93
X69.21Y72.39
X69.21Y69.85
X69.21Y67.31
X69.21Y64.77
X69.21Y62.23
X69.21Y59.69
X69.21Y57.15
X69.21Y54.61
X69.21Y52.07
X69.21Y49.53
X69.21Y46.99
X69.21Y44.45
X69.21Y41.91
X69.21Y39.37
X69.21Y36.83
X69.21Y34.29
X69.21Y31.75
X69.21Y29.21
X69.21Y26.67
T2
X60.325Y19.685
X62.865Y19.685
T3
X1.905Y12.695
X1.905Y10.155
X1.905Y7.615
X1.905Y5.075
X1.905Y2.535
X48.26Y74.93
X48.26Y72.39
X48.26Y69.85
X48.26Y67.31
X48.26Y64.77
X48.26Y62.23
X48.26Y59.69
X48.26Y57.15
X48.26Y54.61
X48.26Y52.07
X48.26Y49.53
X48.26Y46.99
X48.26Y44.45
X48.26Y41.91
X48.26Y39.37
X48.26Y36.83
X48.26Y34.29
X48.26Y31.75
X48.26Y29.21
X48.26Y26.67
X51.435Y74.93
X51.435Y72.39
X51.435Y69.85
X51.435Y67.31
X51.435Y64.77
X51.435Y62.23
X51.435Y59.69
X51.435Y57.15
X51.435Y54.61
X51.435Y52.07
X51.435Y49.53
X51.435Y46.99
X51.435Y44.45
X51.435Y41.91
X51.435Y39.37
X51.435Y36.83
X51.435Y34.29
X51.435Y31.75
X51.435Y29.21
X51.435Y26.67
X69.215Y12.695
X69.215Y10.155
X69.215Y7.615
X69.215Y5.075
X69.215Y2.535
X71.755Y74.93
X71.755Y72.39
X71.755Y69.85
X71.755Y67.31
X71.755Y64.77
X71.755Y62.23
X71.755Y59.69
X71.755Y57.15
X71.755Y54.61
X71.755Y52.07
X71.755Y49.53
X71.755Y46.99
X71.755Y44.45
X71.755Y41.91
X71.755Y39.37
X71.755Y36.83
X71.755Y34.29
X71.755Y31.75
X71.755Y29.21
X71.755Y26.67
X74.93Y74.93
X74.93Y72.39
X74.93Y69.85
X74.93Y67.31
X74.93Y64.77
X74.93Y62.23
X74.93Y59.69
X74.93Y57.15
X74.93Y54.61
X74.93Y52.07
X74.93Y49.53
X74.93Y46.99
X74.93Y44.45
X74.93Y41.91
X74.93Y39.37
X74.93Y36.83
X74.93Y34.29
X74.93Y31.75
X74.93Y29.21
X74.93Y26.67
T0
M30
