G04 #@! TF.GenerationSoftware,KiCad,Pcbnew,(6.0.10-0)*
G04 #@! TF.CreationDate,2023-01-04T21:44:57+09:00*
G04 #@! TF.ProjectId,MEZ80LED,4d455a38-304c-4454-942e-6b696361645f,A*
G04 #@! TF.SameCoordinates,PX5ee3fe0PY8f872a0*
G04 #@! TF.FileFunction,Legend,Bot*
G04 #@! TF.FilePolarity,Positive*
%FSLAX46Y46*%
G04 Gerber Fmt 4.6, Leading zero omitted, Abs format (unit mm)*
G04 Created by KiCad (PCBNEW (6.0.10-0)) date 2023-01-04 21:44:57*
%MOMM*%
%LPD*%
G01*
G04 APERTURE LIST*
%ADD10C,0.150000*%
%ADD11C,0.120000*%
G04 APERTURE END LIST*
D10*
X39131428Y8777620D02*
X39131428Y9777620D01*
X38798095Y9063334D01*
X38464761Y9777620D01*
X38464761Y8777620D01*
X37988571Y9301429D02*
X37655238Y9301429D01*
X37512380Y8777620D02*
X37988571Y8777620D01*
X37988571Y9777620D01*
X37512380Y9777620D01*
X37179047Y9777620D02*
X36512380Y9777620D01*
X37179047Y8777620D01*
X36512380Y8777620D01*
X35988571Y9349048D02*
X36083809Y9396667D01*
X36131428Y9444286D01*
X36179047Y9539524D01*
X36179047Y9587143D01*
X36131428Y9682381D01*
X36083809Y9730000D01*
X35988571Y9777620D01*
X35798095Y9777620D01*
X35702857Y9730000D01*
X35655238Y9682381D01*
X35607619Y9587143D01*
X35607619Y9539524D01*
X35655238Y9444286D01*
X35702857Y9396667D01*
X35798095Y9349048D01*
X35988571Y9349048D01*
X36083809Y9301429D01*
X36131428Y9253810D01*
X36179047Y9158572D01*
X36179047Y8968096D01*
X36131428Y8872858D01*
X36083809Y8825239D01*
X35988571Y8777620D01*
X35798095Y8777620D01*
X35702857Y8825239D01*
X35655238Y8872858D01*
X35607619Y8968096D01*
X35607619Y9158572D01*
X35655238Y9253810D01*
X35702857Y9301429D01*
X35798095Y9349048D01*
X34988571Y9777620D02*
X34893333Y9777620D01*
X34798095Y9730000D01*
X34750476Y9682381D01*
X34702857Y9587143D01*
X34655238Y9396667D01*
X34655238Y9158572D01*
X34702857Y8968096D01*
X34750476Y8872858D01*
X34798095Y8825239D01*
X34893333Y8777620D01*
X34988571Y8777620D01*
X35083809Y8825239D01*
X35131428Y8872858D01*
X35179047Y8968096D01*
X35226666Y9158572D01*
X35226666Y9396667D01*
X35179047Y9587143D01*
X35131428Y9682381D01*
X35083809Y9730000D01*
X34988571Y9777620D01*
X33750476Y8777620D02*
X34226666Y8777620D01*
X34226666Y9777620D01*
X33417142Y9301429D02*
X33083809Y9301429D01*
X32940952Y8777620D02*
X33417142Y8777620D01*
X33417142Y9777620D01*
X32940952Y9777620D01*
X32512380Y8777620D02*
X32512380Y9777620D01*
X32274285Y9777620D01*
X32131428Y9730000D01*
X32036190Y9634762D01*
X31988571Y9539524D01*
X31940952Y9349048D01*
X31940952Y9206191D01*
X31988571Y9015715D01*
X32036190Y8920477D01*
X32131428Y8825239D01*
X32274285Y8777620D01*
X32512380Y8777620D01*
X46440952Y7167620D02*
X46440952Y8167620D01*
X46107619Y7453334D01*
X45774285Y8167620D01*
X45774285Y7167620D01*
X44917142Y7215239D02*
X45012380Y7167620D01*
X45202857Y7167620D01*
X45298095Y7215239D01*
X45345714Y7310477D01*
X45345714Y7691429D01*
X45298095Y7786667D01*
X45202857Y7834286D01*
X45012380Y7834286D01*
X44917142Y7786667D01*
X44869523Y7691429D01*
X44869523Y7596191D01*
X45345714Y7500953D01*
X44536190Y7834286D02*
X44012380Y7834286D01*
X44536190Y7167620D01*
X44012380Y7167620D01*
X43726666Y7834286D02*
X43202857Y7834286D01*
X43726666Y7167620D01*
X43202857Y7167620D01*
X42393333Y7167620D02*
X42393333Y7691429D01*
X42440952Y7786667D01*
X42536190Y7834286D01*
X42726666Y7834286D01*
X42821904Y7786667D01*
X42393333Y7215239D02*
X42488571Y7167620D01*
X42726666Y7167620D01*
X42821904Y7215239D01*
X42869523Y7310477D01*
X42869523Y7405715D01*
X42821904Y7500953D01*
X42726666Y7548572D01*
X42488571Y7548572D01*
X42393333Y7596191D01*
X41917142Y7834286D02*
X41917142Y7167620D01*
X41917142Y7739048D02*
X41869523Y7786667D01*
X41774285Y7834286D01*
X41631428Y7834286D01*
X41536190Y7786667D01*
X41488571Y7691429D01*
X41488571Y7167620D01*
X41012380Y7167620D02*
X41012380Y7834286D01*
X41012380Y8167620D02*
X41060000Y8120000D01*
X41012380Y8072381D01*
X40964761Y8120000D01*
X41012380Y8167620D01*
X41012380Y8072381D01*
X40536190Y7834286D02*
X40536190Y7167620D01*
X40536190Y7739048D02*
X40488571Y7786667D01*
X40393333Y7834286D01*
X40250476Y7834286D01*
X40155238Y7786667D01*
X40107619Y7691429D01*
X40107619Y7167620D01*
X39250476Y7215239D02*
X39345714Y7167620D01*
X39536190Y7167620D01*
X39631428Y7215239D01*
X39679047Y7310477D01*
X39679047Y7691429D01*
X39631428Y7786667D01*
X39536190Y7834286D01*
X39345714Y7834286D01*
X39250476Y7786667D01*
X39202857Y7691429D01*
X39202857Y7596191D01*
X39679047Y7500953D01*
X38012380Y7167620D02*
X38012380Y8167620D01*
X38012380Y7786667D02*
X37917142Y7834286D01*
X37726666Y7834286D01*
X37631428Y7786667D01*
X37583809Y7739048D01*
X37536190Y7643810D01*
X37536190Y7358096D01*
X37583809Y7262858D01*
X37631428Y7215239D01*
X37726666Y7167620D01*
X37917142Y7167620D01*
X38012380Y7215239D01*
X36964761Y7167620D02*
X37060000Y7215239D01*
X37107619Y7262858D01*
X37155238Y7358096D01*
X37155238Y7643810D01*
X37107619Y7739048D01*
X37060000Y7786667D01*
X36964761Y7834286D01*
X36821904Y7834286D01*
X36726666Y7786667D01*
X36679047Y7739048D01*
X36631428Y7643810D01*
X36631428Y7358096D01*
X36679047Y7262858D01*
X36726666Y7215239D01*
X36821904Y7167620D01*
X36964761Y7167620D01*
X35774285Y7167620D02*
X35774285Y7691429D01*
X35821904Y7786667D01*
X35917142Y7834286D01*
X36107619Y7834286D01*
X36202857Y7786667D01*
X35774285Y7215239D02*
X35869523Y7167620D01*
X36107619Y7167620D01*
X36202857Y7215239D01*
X36250476Y7310477D01*
X36250476Y7405715D01*
X36202857Y7500953D01*
X36107619Y7548572D01*
X35869523Y7548572D01*
X35774285Y7596191D01*
X35298095Y7167620D02*
X35298095Y7834286D01*
X35298095Y7643810D02*
X35250476Y7739048D01*
X35202857Y7786667D01*
X35107619Y7834286D01*
X35012380Y7834286D01*
X34250476Y7167620D02*
X34250476Y8167620D01*
X34250476Y7215239D02*
X34345714Y7167620D01*
X34536190Y7167620D01*
X34631428Y7215239D01*
X34679047Y7262858D01*
X34726666Y7358096D01*
X34726666Y7643810D01*
X34679047Y7739048D01*
X34631428Y7786667D01*
X34536190Y7834286D01*
X34345714Y7834286D01*
X34250476Y7786667D01*
X33155238Y7834286D02*
X32774285Y7834286D01*
X33012380Y7167620D02*
X33012380Y8024762D01*
X32964761Y8120000D01*
X32869523Y8167620D01*
X32774285Y8167620D01*
X32298095Y7167620D02*
X32393333Y7215239D01*
X32440952Y7262858D01*
X32488571Y7358096D01*
X32488571Y7643810D01*
X32440952Y7739048D01*
X32393333Y7786667D01*
X32298095Y7834286D01*
X32155238Y7834286D01*
X32060000Y7786667D01*
X32012380Y7739048D01*
X31964761Y7643810D01*
X31964761Y7358096D01*
X32012380Y7262858D01*
X32060000Y7215239D01*
X32155238Y7167620D01*
X32298095Y7167620D01*
X31536190Y7167620D02*
X31536190Y7834286D01*
X31536190Y7643810D02*
X31488571Y7739048D01*
X31440952Y7786667D01*
X31345714Y7834286D01*
X31250476Y7834286D01*
X30155238Y7691429D02*
X29821904Y7691429D01*
X29679047Y7167620D02*
X30155238Y7167620D01*
X30155238Y8167620D01*
X29679047Y8167620D01*
X29250476Y7167620D02*
X29250476Y8167620D01*
X28917142Y7453334D01*
X28583809Y8167620D01*
X28583809Y7167620D01*
X28107619Y8167620D02*
X28107619Y7358096D01*
X28060000Y7262858D01*
X28012380Y7215239D01*
X27917142Y7167620D01*
X27726666Y7167620D01*
X27631428Y7215239D01*
X27583809Y7262858D01*
X27536190Y7358096D01*
X27536190Y8167620D01*
X27155238Y8167620D02*
X26488571Y8167620D01*
X27155238Y7167620D01*
X26488571Y7167620D01*
X25964761Y7739048D02*
X26060000Y7786667D01*
X26107619Y7834286D01*
X26155238Y7929524D01*
X26155238Y7977143D01*
X26107619Y8072381D01*
X26060000Y8120000D01*
X25964761Y8167620D01*
X25774285Y8167620D01*
X25679047Y8120000D01*
X25631428Y8072381D01*
X25583809Y7977143D01*
X25583809Y7929524D01*
X25631428Y7834286D01*
X25679047Y7786667D01*
X25774285Y7739048D01*
X25964761Y7739048D01*
X26060000Y7691429D01*
X26107619Y7643810D01*
X26155238Y7548572D01*
X26155238Y7358096D01*
X26107619Y7262858D01*
X26060000Y7215239D01*
X25964761Y7167620D01*
X25774285Y7167620D01*
X25679047Y7215239D01*
X25631428Y7262858D01*
X25583809Y7358096D01*
X25583809Y7548572D01*
X25631428Y7643810D01*
X25679047Y7691429D01*
X25774285Y7739048D01*
X24964761Y8167620D02*
X24869523Y8167620D01*
X24774285Y8120000D01*
X24726666Y8072381D01*
X24679047Y7977143D01*
X24631428Y7786667D01*
X24631428Y7548572D01*
X24679047Y7358096D01*
X24726666Y7262858D01*
X24774285Y7215239D01*
X24869523Y7167620D01*
X24964761Y7167620D01*
X25060000Y7215239D01*
X25107619Y7262858D01*
X25155238Y7358096D01*
X25202857Y7548572D01*
X25202857Y7786667D01*
X25155238Y7977143D01*
X25107619Y8072381D01*
X25060000Y8120000D01*
X24964761Y8167620D01*
X51893333Y5557620D02*
X51893333Y6557620D01*
X51464761Y5557620D02*
X51464761Y6081429D01*
X51512380Y6176667D01*
X51607619Y6224286D01*
X51750476Y6224286D01*
X51845714Y6176667D01*
X51893333Y6129048D01*
X51131428Y6224286D02*
X50750476Y6224286D01*
X50988571Y6557620D02*
X50988571Y5700477D01*
X50940952Y5605239D01*
X50845714Y5557620D01*
X50750476Y5557620D01*
X50560000Y6224286D02*
X50179047Y6224286D01*
X50417142Y6557620D02*
X50417142Y5700477D01*
X50369523Y5605239D01*
X50274285Y5557620D01*
X50179047Y5557620D01*
X49845714Y6224286D02*
X49845714Y5224286D01*
X49845714Y6176667D02*
X49750476Y6224286D01*
X49560000Y6224286D01*
X49464761Y6176667D01*
X49417142Y6129048D01*
X49369523Y6033810D01*
X49369523Y5748096D01*
X49417142Y5652858D01*
X49464761Y5605239D01*
X49560000Y5557620D01*
X49750476Y5557620D01*
X49845714Y5605239D01*
X48988571Y5605239D02*
X48893333Y5557620D01*
X48702857Y5557620D01*
X48607619Y5605239D01*
X48560000Y5700477D01*
X48560000Y5748096D01*
X48607619Y5843334D01*
X48702857Y5890953D01*
X48845714Y5890953D01*
X48940952Y5938572D01*
X48988571Y6033810D01*
X48988571Y6081429D01*
X48940952Y6176667D01*
X48845714Y6224286D01*
X48702857Y6224286D01*
X48607619Y6176667D01*
X48131428Y5652858D02*
X48083809Y5605239D01*
X48131428Y5557620D01*
X48179047Y5605239D01*
X48131428Y5652858D01*
X48131428Y5557620D01*
X48131428Y6176667D02*
X48083809Y6129048D01*
X48131428Y6081429D01*
X48179047Y6129048D01*
X48131428Y6176667D01*
X48131428Y6081429D01*
X46940952Y6605239D02*
X47798095Y5319524D01*
X45893333Y6605239D02*
X46750476Y5319524D01*
X45131428Y6224286D02*
X45131428Y5414762D01*
X45179047Y5319524D01*
X45226666Y5271905D01*
X45321904Y5224286D01*
X45464761Y5224286D01*
X45560000Y5271905D01*
X45131428Y5605239D02*
X45226666Y5557620D01*
X45417142Y5557620D01*
X45512380Y5605239D01*
X45560000Y5652858D01*
X45607619Y5748096D01*
X45607619Y6033810D01*
X45560000Y6129048D01*
X45512380Y6176667D01*
X45417142Y6224286D01*
X45226666Y6224286D01*
X45131428Y6176667D01*
X44655238Y5557620D02*
X44655238Y6224286D01*
X44655238Y6557620D02*
X44702857Y6510000D01*
X44655238Y6462381D01*
X44607619Y6510000D01*
X44655238Y6557620D01*
X44655238Y6462381D01*
X44321904Y6224286D02*
X43940952Y6224286D01*
X44179047Y6557620D02*
X44179047Y5700477D01*
X44131428Y5605239D01*
X44036190Y5557620D01*
X43940952Y5557620D01*
X43607619Y5557620D02*
X43607619Y6557620D01*
X43179047Y5557620D02*
X43179047Y6081429D01*
X43226666Y6176667D01*
X43321904Y6224286D01*
X43464761Y6224286D01*
X43560000Y6176667D01*
X43607619Y6129048D01*
X42274285Y6224286D02*
X42274285Y5557620D01*
X42702857Y6224286D02*
X42702857Y5700477D01*
X42655238Y5605239D01*
X42560000Y5557620D01*
X42417142Y5557620D01*
X42321904Y5605239D01*
X42274285Y5652858D01*
X41798095Y5557620D02*
X41798095Y6557620D01*
X41798095Y6176667D02*
X41702857Y6224286D01*
X41512380Y6224286D01*
X41417142Y6176667D01*
X41369523Y6129048D01*
X41321904Y6033810D01*
X41321904Y5748096D01*
X41369523Y5652858D01*
X41417142Y5605239D01*
X41512380Y5557620D01*
X41702857Y5557620D01*
X41798095Y5605239D01*
X40893333Y5652858D02*
X40845714Y5605239D01*
X40893333Y5557620D01*
X40940952Y5605239D01*
X40893333Y5652858D01*
X40893333Y5557620D01*
X39988571Y5605239D02*
X40083809Y5557620D01*
X40274285Y5557620D01*
X40369523Y5605239D01*
X40417142Y5652858D01*
X40464761Y5748096D01*
X40464761Y6033810D01*
X40417142Y6129048D01*
X40369523Y6176667D01*
X40274285Y6224286D01*
X40083809Y6224286D01*
X39988571Y6176667D01*
X39417142Y5557620D02*
X39512380Y5605239D01*
X39560000Y5652858D01*
X39607619Y5748096D01*
X39607619Y6033810D01*
X39560000Y6129048D01*
X39512380Y6176667D01*
X39417142Y6224286D01*
X39274285Y6224286D01*
X39179047Y6176667D01*
X39131428Y6129048D01*
X39083809Y6033810D01*
X39083809Y5748096D01*
X39131428Y5652858D01*
X39179047Y5605239D01*
X39274285Y5557620D01*
X39417142Y5557620D01*
X38655238Y5557620D02*
X38655238Y6224286D01*
X38655238Y6129048D02*
X38607619Y6176667D01*
X38512380Y6224286D01*
X38369523Y6224286D01*
X38274285Y6176667D01*
X38226666Y6081429D01*
X38226666Y5557620D01*
X38226666Y6081429D02*
X38179047Y6176667D01*
X38083809Y6224286D01*
X37940952Y6224286D01*
X37845714Y6176667D01*
X37798095Y6081429D01*
X37798095Y5557620D01*
X36607619Y6605239D02*
X37464761Y5319524D01*
X36321904Y5605239D02*
X36226666Y5557620D01*
X36036190Y5557620D01*
X35940952Y5605239D01*
X35893333Y5700477D01*
X35893333Y5748096D01*
X35940952Y5843334D01*
X36036190Y5890953D01*
X36179047Y5890953D01*
X36274285Y5938572D01*
X36321904Y6033810D01*
X36321904Y6081429D01*
X36274285Y6176667D01*
X36179047Y6224286D01*
X36036190Y6224286D01*
X35940952Y6176667D01*
X35036190Y5557620D02*
X35036190Y6081429D01*
X35083809Y6176667D01*
X35179047Y6224286D01*
X35369523Y6224286D01*
X35464761Y6176667D01*
X35036190Y5605239D02*
X35131428Y5557620D01*
X35369523Y5557620D01*
X35464761Y5605239D01*
X35512380Y5700477D01*
X35512380Y5795715D01*
X35464761Y5890953D01*
X35369523Y5938572D01*
X35131428Y5938572D01*
X35036190Y5986191D01*
X34702857Y6224286D02*
X34321904Y6224286D01*
X34560000Y6557620D02*
X34560000Y5700477D01*
X34512380Y5605239D01*
X34417142Y5557620D01*
X34321904Y5557620D01*
X33845714Y5557620D02*
X33940952Y5605239D01*
X33988571Y5652858D01*
X34036190Y5748096D01*
X34036190Y6033810D01*
X33988571Y6129048D01*
X33940952Y6176667D01*
X33845714Y6224286D01*
X33702857Y6224286D01*
X33607619Y6176667D01*
X33560000Y6129048D01*
X33512380Y6033810D01*
X33512380Y5748096D01*
X33560000Y5652858D01*
X33607619Y5605239D01*
X33702857Y5557620D01*
X33845714Y5557620D01*
X33131428Y5605239D02*
X33036190Y5557620D01*
X32845714Y5557620D01*
X32750476Y5605239D01*
X32702857Y5700477D01*
X32702857Y5748096D01*
X32750476Y5843334D01*
X32845714Y5890953D01*
X32988571Y5890953D01*
X33083809Y5938572D01*
X33131428Y6033810D01*
X33131428Y6081429D01*
X33083809Y6176667D01*
X32988571Y6224286D01*
X32845714Y6224286D01*
X32750476Y6176667D01*
X32274285Y5557620D02*
X32274285Y6557620D01*
X31845714Y5557620D02*
X31845714Y6081429D01*
X31893333Y6176667D01*
X31988571Y6224286D01*
X32131428Y6224286D01*
X32226666Y6176667D01*
X32274285Y6129048D01*
X31369523Y5557620D02*
X31369523Y6224286D01*
X31369523Y6557620D02*
X31417142Y6510000D01*
X31369523Y6462381D01*
X31321904Y6510000D01*
X31369523Y6557620D01*
X31369523Y6462381D01*
X30750476Y5557620D02*
X30845714Y5605239D01*
X30893333Y5652858D01*
X30940952Y5748096D01*
X30940952Y6033810D01*
X30893333Y6129048D01*
X30845714Y6176667D01*
X30750476Y6224286D01*
X30607619Y6224286D01*
X30512380Y6176667D01*
X30464761Y6129048D01*
X30417142Y6033810D01*
X30417142Y5748096D01*
X30464761Y5652858D01*
X30512380Y5605239D01*
X30607619Y5557620D01*
X30750476Y5557620D01*
X29988571Y5557620D02*
X29988571Y6557620D01*
X29893333Y5938572D02*
X29607619Y5557620D01*
X29607619Y6224286D02*
X29988571Y5843334D01*
X28750476Y6224286D02*
X28750476Y5557620D01*
X29179047Y6224286D02*
X29179047Y5700477D01*
X29131428Y5605239D01*
X29036190Y5557620D01*
X28893333Y5557620D01*
X28798095Y5605239D01*
X28750476Y5652858D01*
X27893333Y5605239D02*
X27988571Y5557620D01*
X28179047Y5557620D01*
X28274285Y5605239D01*
X28321904Y5700477D01*
X28321904Y6081429D01*
X28274285Y6176667D01*
X28179047Y6224286D01*
X27988571Y6224286D01*
X27893333Y6176667D01*
X27845714Y6081429D01*
X27845714Y5986191D01*
X28321904Y5890953D01*
X26702857Y6605239D02*
X27560000Y5319524D01*
X26369523Y5557620D02*
X26369523Y6557620D01*
X26036190Y5843334D01*
X25702857Y6557620D01*
X25702857Y5557620D01*
X25226666Y6081429D02*
X24893333Y6081429D01*
X24750476Y5557620D02*
X25226666Y5557620D01*
X25226666Y6557620D01*
X24750476Y6557620D01*
X24417142Y6557620D02*
X23750476Y6557620D01*
X24417142Y5557620D01*
X23750476Y5557620D01*
X23226666Y6129048D02*
X23321904Y6176667D01*
X23369523Y6224286D01*
X23417142Y6319524D01*
X23417142Y6367143D01*
X23369523Y6462381D01*
X23321904Y6510000D01*
X23226666Y6557620D01*
X23036190Y6557620D01*
X22940952Y6510000D01*
X22893333Y6462381D01*
X22845714Y6367143D01*
X22845714Y6319524D01*
X22893333Y6224286D01*
X22940952Y6176667D01*
X23036190Y6129048D01*
X23226666Y6129048D01*
X23321904Y6081429D01*
X23369523Y6033810D01*
X23417142Y5938572D01*
X23417142Y5748096D01*
X23369523Y5652858D01*
X23321904Y5605239D01*
X23226666Y5557620D01*
X23036190Y5557620D01*
X22940952Y5605239D01*
X22893333Y5652858D01*
X22845714Y5748096D01*
X22845714Y5938572D01*
X22893333Y6033810D01*
X22940952Y6081429D01*
X23036190Y6129048D01*
X22226666Y6557620D02*
X22131428Y6557620D01*
X22036190Y6510000D01*
X21988571Y6462381D01*
X21940952Y6367143D01*
X21893333Y6176667D01*
X21893333Y5938572D01*
X21940952Y5748096D01*
X21988571Y5652858D01*
X22036190Y5605239D01*
X22131428Y5557620D01*
X22226666Y5557620D01*
X22321904Y5605239D01*
X22369523Y5652858D01*
X22417142Y5748096D01*
X22464761Y5938572D01*
X22464761Y6176667D01*
X22417142Y6367143D01*
X22369523Y6462381D01*
X22321904Y6510000D01*
X22226666Y6557620D01*
X20988571Y5557620D02*
X21464761Y5557620D01*
X21464761Y6557620D01*
X20655238Y6081429D02*
X20321904Y6081429D01*
X20179047Y5557620D02*
X20655238Y5557620D01*
X20655238Y6557620D01*
X20179047Y6557620D01*
X19750476Y5557620D02*
X19750476Y6557620D01*
X19512380Y6557620D01*
X19369523Y6510000D01*
X19274285Y6414762D01*
X19226666Y6319524D01*
X19179047Y6129048D01*
X19179047Y5986191D01*
X19226666Y5795715D01*
X19274285Y5700477D01*
X19369523Y5605239D01*
X19512380Y5557620D01*
X19750476Y5557620D01*
D11*
X73085000Y25340000D02*
X70425000Y25340000D01*
X70425000Y73660000D02*
X70425000Y25340000D01*
X73085000Y73660000D02*
X73085000Y25340000D01*
X73085000Y73660000D02*
X70425000Y73660000D01*
X73085000Y76260000D02*
X71755000Y76260000D01*
X73085000Y74930000D02*
X73085000Y76260000D01*
X52765000Y25340000D02*
X50105000Y25340000D01*
X52765000Y76260000D02*
X51435000Y76260000D01*
X52765000Y73660000D02*
X52765000Y25340000D01*
X52765000Y74930000D02*
X52765000Y76260000D01*
X52765000Y73660000D02*
X50105000Y73660000D01*
X50105000Y73660000D02*
X50105000Y25340000D01*
M02*
