G04 #@! TF.GenerationSoftware,KiCad,Pcbnew,(6.0.10-0)*
G04 #@! TF.CreationDate,2023-01-04T21:44:57+09:00*
G04 #@! TF.ProjectId,MEZ80LED,4d455a38-304c-4454-942e-6b696361645f,A*
G04 #@! TF.SameCoordinates,PX5ee3fe0PY8f872a0*
G04 #@! TF.FileFunction,Soldermask,Top*
G04 #@! TF.FilePolarity,Negative*
%FSLAX46Y46*%
G04 Gerber Fmt 4.6, Leading zero omitted, Abs format (unit mm)*
G04 Created by KiCad (PCBNEW (6.0.10-0)) date 2023-01-04 21:44:57*
%MOMM*%
%LPD*%
G01*
G04 APERTURE LIST*
%ADD10C,1.600000*%
%ADD11O,1.600000X1.600000*%
%ADD12R,1.600000X1.600000*%
%ADD13R,1.700000X1.700000*%
%ADD14O,1.700000X1.700000*%
%ADD15R,1.800000X1.800000*%
%ADD16C,1.800000*%
G04 APERTURE END LIST*
D10*
X45085000Y22860000D03*
D11*
X55245000Y22860000D03*
D12*
X53970000Y74930000D03*
D11*
X53970000Y72390000D03*
X53970000Y69850000D03*
X53970000Y67310000D03*
X53970000Y64770000D03*
X53970000Y62230000D03*
X53970000Y59690000D03*
X53970000Y57150000D03*
X53970000Y54610000D03*
X53970000Y52070000D03*
X53970000Y49530000D03*
X53970000Y46990000D03*
X53970000Y44450000D03*
X53970000Y41910000D03*
X53970000Y39370000D03*
X53970000Y36830000D03*
X53970000Y34290000D03*
X53970000Y31750000D03*
X53970000Y29210000D03*
X53970000Y26670000D03*
X69210000Y26670000D03*
X69210000Y29210000D03*
X69210000Y31750000D03*
X69210000Y34290000D03*
X69210000Y36830000D03*
X69210000Y39370000D03*
X69210000Y41910000D03*
X69210000Y44450000D03*
X69210000Y46990000D03*
X69210000Y49530000D03*
X69210000Y52070000D03*
X69210000Y54610000D03*
X69210000Y57150000D03*
X69210000Y59690000D03*
X69210000Y62230000D03*
X69210000Y64770000D03*
X69210000Y67310000D03*
X69210000Y69850000D03*
X69210000Y72390000D03*
X69210000Y74930000D03*
D13*
X1905000Y12695000D03*
D14*
X1905000Y10155000D03*
X1905000Y7615000D03*
X1905000Y5075000D03*
X1905000Y2535000D03*
D13*
X48260000Y74930000D03*
D14*
X48260000Y72390000D03*
X48260000Y69850000D03*
X48260000Y67310000D03*
X48260000Y64770000D03*
X48260000Y62230000D03*
X48260000Y59690000D03*
X48260000Y57150000D03*
X48260000Y54610000D03*
X48260000Y52070000D03*
X48260000Y49530000D03*
X48260000Y46990000D03*
X48260000Y44450000D03*
X48260000Y41910000D03*
X48260000Y39370000D03*
X48260000Y36830000D03*
X48260000Y34290000D03*
X48260000Y31750000D03*
X48260000Y29210000D03*
X48260000Y26670000D03*
D10*
X45085000Y49530000D03*
X42585000Y49530000D03*
X45085000Y16510000D03*
D11*
X55245000Y16510000D03*
D10*
X45085000Y19685000D03*
D11*
X55245000Y19685000D03*
D13*
X74930000Y74930000D03*
D14*
X74930000Y72390000D03*
X74930000Y69850000D03*
X74930000Y67310000D03*
X74930000Y64770000D03*
X74930000Y62230000D03*
X74930000Y59690000D03*
X74930000Y57150000D03*
X74930000Y54610000D03*
X74930000Y52070000D03*
X74930000Y49530000D03*
X74930000Y46990000D03*
X74930000Y44450000D03*
X74930000Y41910000D03*
X74930000Y39370000D03*
X74930000Y36830000D03*
X74930000Y34290000D03*
X74930000Y31750000D03*
X74930000Y29210000D03*
X74930000Y26670000D03*
D13*
X69215000Y12695000D03*
D14*
X69215000Y10155000D03*
X69215000Y7615000D03*
X69215000Y5075000D03*
X69215000Y2535000D03*
D15*
X60325000Y19685000D03*
D16*
X62865000Y19685000D03*
D13*
X71755000Y74930000D03*
D14*
X71755000Y72390000D03*
X71755000Y69850000D03*
X71755000Y67310000D03*
X71755000Y64770000D03*
X71755000Y62230000D03*
X71755000Y59690000D03*
X71755000Y57150000D03*
X71755000Y54610000D03*
X71755000Y52070000D03*
X71755000Y49530000D03*
X71755000Y46990000D03*
X71755000Y44450000D03*
X71755000Y41910000D03*
X71755000Y39370000D03*
X71755000Y36830000D03*
X71755000Y34290000D03*
X71755000Y31750000D03*
X71755000Y29210000D03*
X71755000Y26670000D03*
D13*
X51435000Y74930000D03*
D14*
X51435000Y72390000D03*
X51435000Y69850000D03*
X51435000Y67310000D03*
X51435000Y64770000D03*
X51435000Y62230000D03*
X51435000Y59690000D03*
X51435000Y57150000D03*
X51435000Y54610000D03*
X51435000Y52070000D03*
X51435000Y49530000D03*
X51435000Y46990000D03*
X51435000Y44450000D03*
X51435000Y41910000D03*
X51435000Y39370000D03*
X51435000Y36830000D03*
X51435000Y34290000D03*
X51435000Y31750000D03*
X51435000Y29210000D03*
X51435000Y26670000D03*
M02*
